<?xml version="1.0" encoding="UTF-8"?>
<svg xmlns="http://www.w3.org/2000/svg" xmlns:xlink="http://www.w3.org/1999/xlink" viewBox="0 0 521.39 500">
  <defs>
    <style>
      .cls-1 {
        clip-path: url(#clippath);
      }

      .cls-2, .cls-3, .cls-4, .cls-5, .cls-6, .cls-7, .cls-8, .cls-9 {
        fill: none;
      }

      .cls-2, .cls-10, .cls-11, .cls-12, .cls-13, .cls-14, .cls-15, .cls-16, .cls-17, .cls-18, .cls-19, .cls-20, .cls-21, .cls-22 {
        stroke-width: 0px;
      }

      .cls-3 {
        stroke: #424a5b;
      }

      .cls-3, .cls-4, .cls-5, .cls-6, .cls-7, .cls-8, .cls-9 {
        stroke-miterlimit: 10;
      }

      .cls-3, .cls-9 {
        stroke-width: 1.29px;
      }

      .cls-4 {
        stroke: #fff;
        stroke-width: 1.26px;
      }

      .cls-23 {
        clip-path: url(#clippath-1);
      }

      .cls-5 {
        stroke: #efcf56;
        stroke-width: 1.94px;
      }

      .cls-5, .cls-6, .cls-7, .cls-8, .cls-9 {
        stroke-linecap: round;
      }

      .cls-6 {
        stroke: #0f1109;
        stroke-width: 1.03px;
      }

      .cls-10 {
        fill: #222221;
        mix-blend-mode: overlay;
        opacity: .3;
      }

      .cls-24 {
        opacity: .3;
      }

      .cls-7 {
        stroke-width: 1.18px;
      }

      .cls-7, .cls-8, .cls-9 {
        stroke: #43434d;
      }

      .cls-8 {
        stroke-width: 1.25px;
      }

      .cls-25 {
        isolation: isolate;
      }

      .cls-11 {
        fill: #837fee;
      }

      .cls-12 {
        fill: #78cd72;
      }

      .cls-13 {
        fill: #63697d;
      }

      .cls-14 {
        fill: #424a5b;
      }

      .cls-15 {
        fill: #43434d;
      }

      .cls-16 {
        fill: #d8edfb;
      }

      .cls-17 {
        fill: #d5d7fb;
      }

      .cls-18 {
        fill: #f2d578;
      }

      .cls-19 {
        fill: #fff;
      }

      .cls-20 {
        fill: #e6b964;
      }

      .cls-21 {
        fill: #efcf56;
      }

      .cls-22 {
        fill: #e8aa91;
      }
    </style>
    <clipPath id="clippath">
      <path class="cls-2" d="m467.65,289.97c-.24,2.84-.56,5.67-.94,8.47-2.41,17.62-7.63,34.51-15.32,50.08-.44.9-.89,1.79-1.36,2.67l-.39.75c-2.25,4.32-4.71,8.54-7.35,12.62-13.36,20.69-31.51,38.27-52.74,50.78-.25.14-.49.29-.74.43-5.67,3.3-11.58,6.3-17.66,9.01-8.31,3.71-16.92,6.89-25.66,9.62-1.13.35-2.27.7-3.4,1.03-1.48.45-2.96.87-4.44,1.29-7.94,2.23-15.94,4.11-23.85,5.69l-.75.15c-2.24.44-4.49.86-6.75,1.25-1.54.27-3.08.53-4.63.76-1.33.22-2.67.42-4.01.61-2.45.36-4.91.69-7.38.98-.1,0-.21.03-.31.03-.02.01-.05.01-.08.01-19.39,2.31-39.01,2.78-58.47,1.49-7.2-.48-14.38-1.21-21.52-2.2-10.44-1.45-20.78-3.6-30.88-6.49-.54-.16-1.08-.31-1.62-.48-9.37-2.75-18.51-6.13-27.36-10.17-18.99-8.66-36.56-20.33-51.69-35.18-9.52-9.34-17.74-18.92-24.81-28.61-6.81-9.32-12.57-18.76-17.39-28.19-6.26-12.19-10.98-24.36-14.48-36.29-1.09-3.68-2.05-7.33-2.9-10.95h0c-13.78-58.14-.08-108.32,3.38-121.48,5.93-22.52,16.34-43.92,31.2-61.92.48-.58.96-1.16,1.46-1.74,4.05-4.76,8.41-9.24,13.03-13.43,6.75-6.11,14.06-11.59,21.84-16.33,0,0,.02,0,.03-.02,1.78-1.08,3.58-2.13,5.41-3.13,4.48-2.46,9.09-4.68,13.84-6.65h.01c21.88-9.14,46.01-12.91,69.64-10.96,29.34,2.42,56.13,9.17,79.74,27.34,9.37,7.22,17.47,16.07,27.31,22.63,9.81,6.54,20.79,11.16,31.84,15.13,12.28,4.41,24.69,9.05,36.68,14.52h0c19.56,8.9,37.98,19.98,52.89,35.76,25.14,26.61,38.72,60.58,40.87,97.24.47,8.05.36,16.03-.3,23.88Z"/>
    </clipPath>
    <clipPath id="clippath-1">
      <path class="cls-2" d="m300.72,400.03s-63.62,39.29-93.73,27.86c-8.28-3.15-17.63-14.09-26.7-23.51-1.19,5.23-2.22,25.01-2.89,34.14-9.37-2.75-18.51-6.13-27.36-10.17-18.99-8.66-36.56-20.33-51.69-35.18-9.52-9.34-17.74-18.92-24.81-28.61-6.81-9.32-12.57-18.76-17.39-28.19,2.04-69.29,43.84-73.74,43.84-73.74,1.73-.09,3.48-.14,5.21-.14,12.16-.06,24.34,1.99,35.94,6.5,17.8,6.92,34.25,19.64,47.24,39.49,4.17,6.37,8.12,12.49,11.8,18.24,1.91,2.99,3.74,5.88,5.5,8.64,7,11.08,12.67,20.26,16.41,26.38,3.21,5.25,5,8.24,5,8.24l2.98-.67,53.29-12.05,1.59,3.91,13.84,34.1,1.93,4.76Z"/>
    </clipPath>
  </defs>
  <g class="cls-25">
    <g id="OBJECTS">
      <g class="cls-24">
        <path class="cls-16" d="m467.65,289.97c-.24,2.84-.56,5.67-.94,8.47-2.41,17.62-7.63,34.51-15.32,50.08-.44.9-.89,1.79-1.36,2.67l-.39.75c-2.25,4.32-4.71,8.54-7.35,12.62-13.36,20.69-31.51,38.27-52.74,50.78-.25.14-.49.29-.74.43-5.67,3.3-11.58,6.3-17.66,9.01-8.31,3.71-16.92,6.89-25.66,9.62-1.13.35-2.27.7-3.4,1.03-1.48.45-2.96.87-4.44,1.29-7.94,2.23-15.94,4.11-23.85,5.69l-.75.15c-2.24.44-4.49.86-6.75,1.25-1.54.27-3.08.53-4.63.76-1.33.22-2.67.42-4.01.61-2.45.36-4.91.69-7.38.98-.1,0-.21.03-.31.03-.02.01-.05.01-.08.01-19.39,2.31-39.01,2.78-58.47,1.49-7.2-.48-14.38-1.21-21.52-2.2-10.44-1.45-20.78-3.6-30.88-6.49-.54-.16-1.08-.31-1.62-.48-9.37-2.75-18.51-6.13-27.36-10.17-18.99-8.66-36.56-20.33-51.69-35.18-9.52-9.34-17.74-18.92-24.81-28.61-6.81-9.32-12.57-18.76-17.39-28.19-6.26-12.19-10.98-24.36-14.48-36.29-1.09-3.68-2.05-7.33-2.9-10.95h0c-13.78-58.14-.08-108.32,3.38-121.48,5.93-22.52,16.34-43.92,31.2-61.92.48-.58.96-1.16,1.46-1.74,4.05-4.76,8.41-9.24,13.03-13.43,6.75-6.11,14.06-11.59,21.84-16.33,0,0,.02,0,.03-.02,1.78-1.08,3.58-2.13,5.41-3.13,4.48-2.46,9.09-4.68,13.84-6.65h.01c21.88-9.14,46.01-12.91,69.64-10.96,29.34,2.42,56.13,9.17,79.74,27.34,9.37,7.22,17.47,16.07,27.31,22.63,9.81,6.54,20.79,11.16,31.84,15.13,12.28,4.41,24.69,9.05,36.68,14.52h0c19.56,8.9,37.98,19.98,52.89,35.76,25.14,26.61,38.72,60.58,40.87,97.24.47,8.05.36,16.03-.3,23.88Z"/>
        <g class="cls-1">
          <g>
            <path class="cls-18" d="m521.39,334.73c-2.94,5.37-6.16,10.62-9.61,15.7-17.47,25.74-41.2,47.61-68.96,63.17-.33.17-.64,3.36-.97,3.53H150.04v-82.41h371.35Z"/>
            <path class="cls-20" d="m441.84,414.14c-7.41,4.11-15.14,7.84-23.09,11.21H150.04v-11.21h291.81Z"/>
          </g>
          <g>
            <line class="cls-9" x1="455.29" y1="334.73" x2="425.2" y2="334.73"/>
            <line class="cls-9" x1="384.62" y1="414.14" x2="282.86" y2="414.14"/>
            <line class="cls-9" x1="360.41" y1="424.74" x2="258.65" y2="424.74"/>
          </g>
        </g>
        <path class="cls-19" d="m173.24,95.23c.09-.72.15-1.44.15-2.18,0-9.86-7.99-17.85-17.85-17.85-2.66,0-5.18.6-7.45,1.65-3.63-7.35-11.19-12.42-19.95-12.42-12.29,0-22.26,9.97-22.26,22.26,0,.05,0,.11,0,.16-8.78,1.12-15.57,8.6-15.57,17.69,0,9.86,7.99,17.85,17.85,17.85l63.74.35c7.61,0,13.78-6.17,13.78-13.78,0-7.16-5.46-13.04-12.45-13.71Z"/>
        <g>
          <path class="cls-6" d="m365.77,171.77c0-3.2-2.6-5.8-5.8-5.8s-5.8,2.6-5.8,5.8,2.6,5.8,5.8,5.8,5.8-2.6,5.8-5.8Z"/>
          <path class="cls-6" d="m47.19,294.29c0-3.2-2.6-5.8-5.8-5.8s-5.8,2.6-5.8,5.8,2.6,5.8,5.8,5.8,5.8-2.6,5.8-5.8Z"/>
          <path class="cls-6" d="m208.59,75.4c0-3.2-2.6-5.8-5.8-5.8s-5.8,2.6-5.8,5.8,2.6,5.8,5.8,5.8,5.8-2.6,5.8-5.8Z"/>
          <path class="cls-21" d="m331.51,57.95c-.74,2.67-1.33,3.27-4,4,2.67.74,3.27,1.34,4,4,.74-2.67,1.33-3.27,4-4-2.67-.74-3.27-1.33-4-4Z"/>
          <path class="cls-21" d="m330.53,80.17c-1.44,5.22-2.61,6.39-7.83,7.83,5.22,1.44,6.39,2.61,7.83,7.83,1.44-5.22,2.61-6.39,7.83-7.83-5.22-1.44-6.39-2.61-7.83-7.83Z"/>
          <path class="cls-21" d="m304.93,67.97c-1.12,4.06-2.03,4.97-6.1,6.1,4.06,1.12,4.97,2.03,6.1,6.1,1.12-4.06,2.03-4.97,6.1-6.1-4.06-1.12-4.97-2.03-6.1-6.1Z"/>
          <path class="cls-21" d="m41.39,116.63c-1.12,4.06-2.03,4.97-6.1,6.1,4.06,1.12,4.97,2.03,6.1,6.1,1.12-4.06,2.03-4.97,6.1-6.1-4.06-1.12-4.97-2.03-6.1-6.1Z"/>
          <path class="cls-19" d="m217.32,266.11c-.82,2.96-1.48,3.62-4.44,4.44,2.96.82,3.62,1.48,4.44,4.44.82-2.96,1.48-3.62,4.44-4.44-2.96-.82-3.62-1.48-4.44-4.44Z"/>
          <path class="cls-19" d="m243.51,434.53c-.82,2.96-1.48,3.62-4.44,4.44,2.96.82,3.62,1.48,4.44,4.44.82-2.96,1.48-3.62,4.44-4.44-2.96-.82-3.62-1.48-4.44-4.44Z"/>
          <path class="cls-19" d="m420.37,202.36c-.82,2.96-1.48,3.62-4.44,4.44,2.96.82,3.62,1.48,4.44,4.44.82-2.96,1.48-3.62,4.44-4.44-2.96-.82-3.62-1.48-4.44-4.44Z"/>
          <path class="cls-19" d="m401.24,184.1c-1.22,4.43-2.21,5.42-6.64,6.64,4.43,1.22,5.42,2.21,6.64,6.64,1.22-4.43,2.21-5.42,6.64-6.64-4.43-1.22-5.42-2.21-6.64-6.64Z"/>
          <path class="cls-19" d="m61.26,255.34c-1.22,4.43-2.21,5.42-6.64,6.64,4.43,1.22,5.42,2.21,6.64,6.64,1.22-4.43,2.21-5.42,6.64-6.64-4.43-1.22-5.42-2.21-6.64-6.64Z"/>
          <path class="cls-19" d="m80.85,163.72c-.82,2.96-1.48,3.62-4.44,4.44,2.96.82,3.62,1.48,4.44,4.44.82-2.96,1.48-3.62,4.44-4.44-2.96-.82-3.62-1.48-4.44-4.44Z"/>
        </g>
        <g>
          <path class="cls-9" d="m48.77,88.28c2.28,0,2.28,3.79,4.57,3.79s2.28-3.79,4.57-3.79,2.28,3.79,4.57,3.79,2.28-3.79,4.57-3.79,2.28,3.79,4.57,3.79,2.28-3.79,4.57-3.79,2.28,3.79,4.56,3.79,2.28-3.79,4.57-3.79,2.28,3.79,4.57,3.79,2.28-3.79,4.57-3.79,2.28,3.79,4.57,3.79,2.28-3.79,4.57-3.79,2.28,3.79,4.57,3.79,2.28-3.79,4.57-3.79,2.28,3.79,4.57,3.79,2.29-3.79,4.57-3.79,2.29,3.79,4.58,3.79,2.29-3.79,4.58-3.79"/>
          <path class="cls-9" d="m239.83,218.03c2.39,0,2.39,3.79,4.78,3.79s2.39-3.79,4.78-3.79,2.39,3.79,4.78,3.79,2.39-3.79,4.78-3.79,2.39,3.79,4.78,3.79,2.39-3.79,4.78-3.79,2.39,3.79,4.78,3.79,2.39-3.79,4.79-3.79,2.39,3.79,4.79,3.79"/>
          <path class="cls-9" d="m452.09,286.59c2.39,0,2.39,3.79,4.78,3.79s2.39-3.79,4.78-3.79,2.39,3.79,4.78,3.79,2.39-3.79,4.78-3.79,2.39,3.79,4.78,3.79"/>
          <path class="cls-9" d="m443.34,294.71c2.39,0,2.39,3.79,4.78,3.79s2.39-3.79,4.78-3.79,2.39,3.79,4.78,3.79,2.39-3.79,4.78-3.79,2.39,3.79,4.78,3.79"/>
          <path class="cls-9" d="m262.31,435.18c2.39,0,2.39,3.79,4.78,3.79s2.39-3.79,4.78-3.79,2.39,3.79,4.78,3.79,2.39-3.79,4.78-3.79,2.39,3.79,4.78,3.79"/>
          <path class="cls-9" d="m221.15,225.71c2.39,0,2.39,3.79,4.78,3.79s2.39-3.79,4.78-3.79,2.39,3.79,4.78,3.79,2.39-3.79,4.78-3.79,2.39,3.79,4.78,3.79,2.39-3.79,4.78-3.79,2.39,3.79,4.78,3.79,2.39-3.79,4.79-3.79,2.39,3.79,4.79,3.79"/>
          <path class="cls-9" d="m348.64,131.86c2.28,0,2.28,3.79,4.57,3.79s2.28-3.79,4.57-3.79,2.28,3.79,4.57,3.79,2.28-3.79,4.57-3.79,2.28,3.79,4.57,3.79,2.28-3.79,4.57-3.79,2.28,3.79,4.56,3.79,2.28-3.79,4.57-3.79,2.28,3.79,4.57,3.79,2.28-3.79,4.57-3.79,2.28,3.79,4.57,3.79,2.28-3.79,4.57-3.79,2.28,3.79,4.57,3.79,2.28-3.79,4.57-3.79,2.28,3.79,4.57,3.79,2.29-3.79,4.57-3.79,2.29,3.79,4.58,3.79,2.29-3.79,4.58-3.79"/>
          <path class="cls-9" d="m63.83,102.79c2.28,0,2.28,3.79,4.57,3.79s2.28-3.79,4.57-3.79,2.28,3.79,4.57,3.79,2.28-3.79,4.57-3.79,2.28,3.79,4.57,3.79,2.28-3.79,4.57-3.79,2.28,3.79,4.56,3.79,2.28-3.79,4.57-3.79,2.28,3.79,4.57,3.79,2.28-3.79,4.57-3.79,2.28,3.79,4.57,3.79,2.28-3.79,4.57-3.79,2.28,3.79,4.57,3.79,2.28-3.79,4.57-3.79,2.28,3.79,4.57,3.79,2.29-3.79,4.57-3.79,2.29,3.79,4.58,3.79,2.29-3.79,4.58-3.79"/>
        </g>
        <g>
          <circle class="cls-19" cx="247.96" cy="135.84" r="37.58" transform="translate(-24.86 61.66) rotate(-13.5)"/>
          <circle class="cls-19" cx="206.38" cy="178.73" r="12.9" transform="translate(-65.93 198.28) rotate(-45)"/>
          <g>
            <g>
              <path class="cls-21" d="m263.99,137.18c2.27-9.01-3.73-18.17-13.2-19.46-7.23-.99-14.34,3.3-16.85,10.15-1.88,5.13-.95,10.45,1.88,14.49,1.71,2.44,2.39,5.46,1.66,8.36l-.42,1.69,12.92,3.25.41-1.61c.74-2.93,2.78-5.3,5.48-6.67,3.91-1.99,6.98-5.59,8.14-10.18Z"/>
              <path class="cls-4" d="m240.26,138.19c.92.59,2.06.79,3.15.64,1.08-.14,2.11-.6,3.02-1.2,1.03-.69,1.95-1.59,2.53-2.69.59-1.1.83-2.4.56-3.61-.1-.45-.28-.91-.61-1.24-.33-.33-.82-.52-1.27-.39-.38.11-.67.42-.9.74-1.04,1.43-1.33,3.36-.82,5.06.51,1.7,1.8,3.13,3.4,3.87,1.61.74,3.51.79,5.17.19"/>
              <polyline class="cls-7" points="243.16 138.13 241.84 155.39 244.59 156.08 251.38 139.61"/>
              <g>
                <path class="cls-11" d="m249.1,157.21l-12.02-3.02c-.93-.23-1.49-1.18-1.26-2.11h0c.23-.93,1.18-1.49,2.11-1.26l12.02,3.02c.93.23,1.49,1.18,1.26,2.11h0c-.23.93-1.18,1.49-2.11,1.26Z"/>
                <path class="cls-11" d="m248.25,160.58l-12.02-3.02c-.93-.23-1.49-1.18-1.26-2.11h0c.23-.93,1.18-1.49,2.11-1.26l12.02,3.02c.93.23,1.49,1.18,1.26,2.11h0c-.23.93-1.18,1.49-2.11,1.26Z"/>
                <path class="cls-11" d="m247.41,163.94l-12.02-3.02c-.93-.23-1.49-1.18-1.26-2.11h0c.23-.93,1.18-1.49,2.11-1.26l12.02,3.02c.93.23,1.49,1.18,1.26,2.11h0c-.23.93-1.18,1.49-2.11,1.26Z"/>
              </g>
            </g>
            <g>
              <line class="cls-5" x1="268.08" y1="127.57" x2="277.7" y2="124.48"/>
              <line class="cls-5" x1="269.31" y1="138.81" x2="279.21" y2="139.92"/>
              <line class="cls-5" x1="265.32" y1="147.52" x2="271.91" y2="155.53"/>
            </g>
            <g>
              <line class="cls-5" x1="231.34" y1="119.98" x2="222.89" y2="114.44"/>
              <line class="cls-5" x1="227.16" y1="130.48" x2="217.32" y2="128.92"/>
              <line class="cls-5" x1="228.68" y1="139.94" x2="220.19" y2="145.9"/>
            </g>
          </g>
        </g>
        <g>
          <g>
            <path class="cls-14" d="m275.06,362.69h142.72c2.03,0,3.76-1.49,4.06-3.5l15.59-105.94c.36-2.47-1.55-4.7-4.06-4.7h-142.72c-2.03,0-3.76,1.49-4.06,3.5l-15.59,105.94c-.36,2.47,1.55,4.7,4.06,4.7Z"/>
            <polygon class="cls-14" points="219.68 398.87 370.69 398.87 420.53 361.53 269.52 361.53 219.68 398.87"/>
            <polygon class="cls-13" points="237.94 391.63 271.39 367.57 401.02 367.57 367.57 391.63 237.94 391.63"/>
            <polygon class="cls-17" points="414.41 354.69 428.86 256.54 294.02 256.54 279.58 354.69 414.41 354.69"/>
          </g>
          <g>
            <path class="cls-19" d="m309.32,217.85c.67-4.56,4.58-7.93,9.19-7.93h99.88c4.16,0,7.34,3.69,6.74,7.8l-.02.13-8.04,54.61-.11-.22-12.14,82.45h-115.64l20.14-136.83Z"/>
            <g>
              <line class="cls-8" x1="387.94" y1="224.8" x2="341.69" y2="224.8"/>
              <line class="cls-8" x1="356.88" y1="242.49" x2="316.04" y2="242.49"/>
              <line class="cls-8" x1="400.96" y1="242.49" x2="363.22" y2="242.49"/>
              <line class="cls-8" x1="335.17" y1="251.34" x2="314.96" y2="251.34"/>
              <line class="cls-8" x1="409.65" y1="251.34" x2="346.29" y2="251.34"/>
              <line class="cls-8" x1="381.79" y1="260.19" x2="313.87" y2="260.19"/>
              <line class="cls-8" x1="408.57" y1="260.19" x2="390.18" y2="260.19"/>
              <line class="cls-8" x1="407.48" y1="269.03" x2="333.1" y2="269.03"/>
              <line class="cls-8" x1="354.7" y1="277.88" x2="311.7" y2="277.88"/>
              <line class="cls-8" x1="394.42" y1="277.88" x2="360.88" y2="277.88"/>
              <line class="cls-8" x1="320.37" y1="286.72" x2="310.62" y2="286.72"/>
              <line class="cls-8" x1="405.31" y1="286.72" x2="325.07" y2="286.72"/>
              <line class="cls-8" x1="333.2" y1="295.57" x2="309.53" y2="295.57"/>
              <line class="cls-8" x1="372.12" y1="295.57" x2="339.02" y2="295.57"/>
              <line class="cls-8" x1="404.22" y1="295.57" x2="377.97" y2="295.57"/>
              <line class="cls-8" x1="403.14" y1="304.42" x2="329.41" y2="304.42"/>
              <line class="cls-8" x1="344.87" y1="313.26" x2="307.36" y2="313.26"/>
              <line class="cls-8" x1="394.42" y1="313.26" x2="351.45" y2="313.26"/>
              <line class="cls-8" x1="323.38" y1="322.11" x2="306.27" y2="322.11"/>
              <line class="cls-8" x1="372.93" y1="322.11" x2="327.34" y2="322.11"/>
              <line class="cls-8" x1="400.96" y1="322.11" x2="379.35" y2="322.11"/>
              <line class="cls-8" x1="381.79" y1="330.95" x2="304.5" y2="330.95"/>
            </g>
          </g>
        </g>
        <g>
          <g>
            <g>
              <g>
                <path class="cls-22" d="m231.81,363.48c5.07-3.65,9.3-8.46,12.27-13.96,8.21-1.91,20.39-4.82,27.01-10.42,3.28-2.78,4.46-6.16,4.52-10.54-1.37,2,4.37,5.43,6.79,5.36,2.42-.07,2.28-2.16,2.35-4.58.2-6.88.3-10.46-3.24-13.87,1.24-3.75-2.92-7.58-5.98-10.08-2.37-2.86-1.36-2.59-5.82-5.41-2.6-1.64-6.33-1.43-9.82-.04-3.47-.21-15.49,1.49-18.67,2.91-7.78,3.47-11.62,8.96-16.34,14.22-10.87,12.14-19.43,18.98-32.78,28.32,9.43,9.84,26.13,16.82,39.7,18.09Z"/>
                <path class="cls-9" d="m280.12,315.66c-3.14-.51-6.41-.23-9.43.79"/>
                <path class="cls-9" d="m275.54,305.4c-5.08-1.11-8.84.02-12.05,2.12"/>
                <path class="cls-9" d="m259.9,299.94c-3.03.89-5.47,2.62-7.03,4.35"/>
              </g>
              <path class="cls-9" d="m284.2,319.91c1.44,3.85,1.13,8.11.8,12.21-.05.57-.11,1.17-.47,1.61-.35.43-.93.61-1.48.7-2.17.34-4.48-.48-5.94-2.12s-2.02-4.03-1.43-6.15c-1.18,0-2.51-.51-3.64-.85-1.45,3.16-4.13,6-7.02,7.92"/>
              <path class="cls-9" d="m275.9,330.78c.06,3.25-1.72,6.33-4.16,8.47-2.44,2.14-5.49,3.46-8.56,4.53-3.94,1.37-8.19,2.85-12.24,3.75"/>
            </g>
            <path class="cls-12" d="m206.63,392.27l41.2-40.38-26.52-37.78s-57.21,30.04-69.68,59.8c18.71,6.2,37.32,12.75,55.75,19.88-.48-.99-.75-1.52-.75-1.52Z"/>
          </g>
          <g>
            <path class="cls-14" d="m183.03,209.58c-1.04,1.87-2.58,3.8-4.72,3.97-2.51.2-4.49-2.09-5.69-4.31-3.43-6.37-4.25-13.86-3.78-21.08.26-4.09,1.23-7.93,4.96-10.16,2.71-1.62,5.2-1.06,7.19,1.35,4.3,5.23,5.95,12.78,5.34,19.4-.35,3.78-1.44,7.51-3.29,10.83Z"/>
            <path class="cls-22" d="m125.04,217.21c1.59,9.79,3.33,19.96,9.03,28.08,5.71,8.12,16.63,13.49,25.78,9.65,6.05-2.54,10.01-8.39,12.94-14.25,8.61-17.26,11.21-37.45,7.25-56.33-1.96-9.33-12.35-12.57-21.88-12.48-9.53.09-18.45,5.94-23.66,13.92-5.21,7.98-10.99,21.99-9.46,31.4Z"/>
            <path class="cls-14" d="m107.2,250.71c1.69-2.01,3.18-4.11,4.43-5.76,5.7-7.56,10.04-16.4,13.01-25.15,3.01-8.85,7.32-20.13,7.35-29.48,7.77,4.29,16.26,7.7,25.13,8.08,8.87.37,18.2-2.66,23.92-9.44,6.64-7.88-9.9-18.68-15.16-21.9-9.97-6.11-22-8.91-33.63-7.49-6.76.83-13.63,3.18-18.29,8.15-7.96,8.5-7.17,20.63-11.55,30.72-2.31,5.33-6.19,10.23-11.53,12.53-7.69,3.32-16.52.74-24.48-1.87.76,9.08,2.07,18.24,5.68,26.61,3.65,8.47,14.03,21.68,24.22,21.8,4.2.05,7.88-3.22,10.89-6.79Z"/>
            <path class="cls-22" d="m121.81,212.52c-6.91,19.96-14.47,52.04-26.64,69.3,9.05,7.83,30.68,1.57,42.13,5.04,5.43-19.5,6.01-43.8,15.94-61.44-2.79-.53-4.52-3.08-6.74-4.84-6.33-5.02-18.35-3.05-24.69-8.07Z"/>
            <path class="cls-22" d="m131.33,189.27c-3.04-2.85-7.36-4.83-11.44-4.43-4.74.47-8.13,3.99-9.76,7.9-2.56,6.12-1.21,14.26,4.86,18.92,4.91,3.78,12.33,4.43,17.16,1.51,8.45-5.1,6.24-17.29-.81-23.91Z"/>
            <path class="cls-9" d="m175.49,205.31c-3.93-.37-7.93.04-11.71,1.2"/>
            <path class="cls-15" d="m169.41,213.37c.29-.7,1.09-1.04,1.8-.75.7.29,1.04,1.09.75,1.8-.29.7-1.09,1.04-1.8.75-.7-.29-1.04-1.09-.75-1.8Z"/>
            <g>
              <path class="cls-9" d="m119.53,192.68c1.52,3.73,3.05,7.46,4.57,11.19"/>
              <path class="cls-9" d="m127.75,194.81c-3.72,1.63-7.16,3.87-10.15,6.62"/>
            </g>
            <path class="cls-22" d="m175.56,227.22c1.94.75,4.26.39,5.88-.92,1.61-1.31,2.46-3.51,2.12-5.56-.33-2.05-1.82-3.87-3.77-4.6-1.7,2.82-3.85,7.81-4.23,11.08Z"/>
            <path class="cls-10" d="m138.61,213.37c1.69-4.12,6.4-6.1,10.52-4.41,4.12,1.69,6.1,6.4,4.41,10.52-1.69,4.12-6.4,6.1-10.52,4.41-4.12-1.69-6.1-6.4-4.41-10.52Z"/>
            <path class="cls-3" d="m112.59,175.17c-2.2,3.36-4.08,6.93-5.61,10.64-1.39,3.37-1.85,7.55-3.61,10.67-3.45,6.14-9.9,10.51-16.89,11.43-6.99.92-14.35-1.62-19.27-6.66"/>
            <path class="cls-3" d="m137.3,191.56c4.81,2.96,9.88,5.58,15.33,7.05,5.45,1.47,11.32,1.73,16.7.02,3.12-1,6.03-2.69,8.38-4.97,2.09-2.03,5.12-5.28,4.97-8.4-.07-1.49-.98-2.91-2.3-3.59"/>
            <path class="cls-9" d="m140.18,251.19c-7.24-3.42-13.26-9.33-16.81-16.51"/>
            <path class="cls-9" d="m165.92,224.49c-.21,3.04,1.65,6.1,4.44,7.33"/>
          </g>
          <g>
            <path class="cls-22" d="m283.19,401.42c6.16-1.07,12.06-3.55,17.13-7.2,12.3,2.8,27.15,2.1,37.52-5.09-2.11,1.2-1.36,4.83.85,5.82,2.21.99,4.85-.02,6.69-1.6,3.73-3.2,5.19-8.8,3.49-13.42,2.75-2.84.3-10.5-1.37-14.08-1.66-3.59-.61-4.79-3.86-7.04-3.13-2.17-4.53-2.88-8.86-2.88-3.03-1.71-13.17-4.83-16.65-4.94-8.51-.27-14.37,2.98-20.91,5.66-15.08,6.17-25.76,8.59-41.86,11.17,4.19,12.97,16.16,26.54,27.82,33.6Z"/>
            <path class="cls-9" d="m347.54,379.49c-2.61-1.83-5.67-3.01-8.83-3.4"/>
            <path class="cls-9" d="m340.43,385.66c-1,1.09-1.8,2.37-2.35,3.75"/>
            <path class="cls-9" d="m347.51,365.85c-3.67-1.11-7.58-1.44-11.38-.94"/>
            <path class="cls-9" d="m334.78,355.93c-2.33.07-4.64.56-6.8,1.44"/>
          </g>
          <g>
            <path class="cls-12" d="m300.72,400.03s-63.62,39.29-93.73,27.86c-8.28-3.15-17.63-14.09-26.7-23.51-1.19,5.23-2.22,25.01-2.89,34.14-9.37-2.75-18.51-6.13-27.36-10.17-18.99-8.66-36.56-20.33-51.69-35.18-9.52-9.34-17.74-18.92-24.81-28.61-6.81-9.32-12.57-18.76-17.39-28.19,2.04-69.29,43.84-73.74,43.84-73.74,1.73-.09,3.48-.14,5.21-.14,12.16-.06,24.34,1.99,35.94,6.5,17.8,6.92,34.25,19.64,47.24,39.49,4.17,6.37,8.12,12.49,11.8,18.24,1.91,2.99,3.74,5.88,5.5,8.64,7,11.08,12.67,20.26,16.41,26.38,3.21,5.25,5,8.24,5,8.24l2.98-.67,53.29-12.05,1.59,3.91,13.84,34.1,1.93,4.76Z"/>
            <g class="cls-23">
              <g>
                <path class="cls-4" d="m74.55,254.27c19.77,16.75,31.53,42.55,31.21,68.46-.13,10.84-2.37,21.87-8.04,31.12-5.67,9.25-15.06,16.52-25.79,18.11-10.73,1.58-22.54-3.28-27.78-12.78-3.81-6.9-3.41-16.62,2.68-21.62,3.82-3.13,9.2-3.9,14.03-2.86,4.83,1.04,9.16,3.7,12.99,6.83,14.65,11.96,22.55,30.92,23.62,49.8,1.91,33.62-4.98,39.49-12.11,54.84"/>
                <path class="cls-4" d="m173.37,274.37c-12.53,8.87-23.57,20.93-27.5,35.77-3.93,14.84.82,32.59,13.86,40.7,10.3,6.41,23.39,5.91,34.81,10.02,19.09,6.87,31.93,28,29.24,48.11-.69,5.18-2.38,10.37-5.75,14.37-3.38,3.99-8.65,6.61-13.83,5.9-8.47-1.16-13.73-11.39-11.21-19.55s11.04-13.51,19.56-14.1c8.52-.59,16.9,2.86,23.95,7.68,12.42,8.51,21.65,21.57,25.51,36.13"/>
              </g>
            </g>
            <path class="cls-9" d="m206.98,427.89c-13.63-5.85-57.29-55.5-66.69-73.26"/>
          </g>
        </g>
        <polyline class="cls-9" points="200.18 326.72 227.09 369.98 268.27 360.67"/>
        <line class="cls-9" x1="221.31" y1="314.11" x2="246.86" y2="350.5"/>
        <line class="cls-9" x1="283.36" y1="357.26" x2="300.72" y2="400.03"/>
      </g>
    </g>
  </g>
</svg>